PathFileType	4	(X/Y/Z)	D:\Share\Shared_Data\Ergonomics\Sit To Stand Pertubation\S2\Perturbed.trc
DataRate	CameraRate	NumFrames	NumMarkers	Units	OrigDataRate	OrigDataStartFrame	OrigNumFrames	
100	100	17	18	m	100	8691	201
Frame#	Time	R_Toe			R_ASIS			R_Pelvis			V_Sacral			L_Pelvis			L_ASIS			Clavical			R_Acromium			L_Acromium			Sternum			Torso			R_Thigh_Med			R_Thigh_Lat			R_Thigh			R_Shank_Med			R_Shank_Lat			R_Shank			R_Heel			
		X1	Y1	Z1	X2	Y2	Z2	X3	Y3	Z3	X4	Y4	Z4	X5	Y5	Z5	X6	Y6	Z6	X7	Y7	Z7	X8	Y8	Z8	X9	Y9	Z9	X10	Y10	Z10	X11	Y11	Z11	X12	Y12	Z12	X13	Y13	Z13	X14	Y14	Z14	X15	Y15	Z15	X16	Y16	Z16	X17	Y17	Z17	X18	Y18	Z18	

8691	86.9	0.43190817	0.066351334	0.14527371	-0.075062614	0.63130286	0.11770951	-0.1547068	0.64223395	0.16435506	-0.28986334	0.58693591	0.01501753	-0.19805911	0.63614923	-0.17493504	-0.10487482	0.64549591	-0.14639299	-0.073262268	1.0390221	-0.005597702	-0.17055939	1.0563679	0.1994286	-0.17484277	1.0607872	-0.19313863	-0.026430309	0.88135181	-0.0045710697	-0.060758205	0.99710748	-0.12034673	0.31577029	0.51110226	0.1295965	0.27984299	0.51604608	0.23205705	0.12022565	0.62299335	0.17337328	0.29637143	0.11198788	0.11050258	0.27489917	0.10068694	0.20243614	0.28555954	0.36237415	0.24288304	0.19456714	0.061875313	0.14903653
8692	86.91	0.43192261	0.066338051	0.14541228	-0.075116768	0.6314115	0.11734078	-0.15476372	0.64228802	0.16436424	-0.28996875	0.58692059	0.015050994	-0.19821053	0.63630756	-0.17581056	-0.10494723	0.64553491	-0.14638933	-0.072856728	1.0390096	-0.0056153145	-0.17015694	1.0563893	0.19941966	-0.17445865	1.06083	-0.19313643	-0.026066301	0.88130841	-0.0046303172	-0.060382553	0.99708868	-0.12039545	0.31550693	0.51108563	0.12952487	0.27974026	0.5160625	0.23199954	0.1201497	0.6230318	0.17341502	0.29634219	0.11198501	0.11050597	0.27488937	0.10068914	0.20244785	0.28547531	0.36240524	0.2428732	0.19456259	0.061873531	0.14904436
8693	86.92	0.43193747	0.066323479	0.14555551	-0.075185936	0.63152618	0.11705971	-0.15482576	0.64236292	0.16437312	-0.29008838	0.58691583	0.015084738	-0.19835849	0.63645514	-0.17645793	-0.10501495	0.64557898	-0.14640068	-0.072388573	1.0389967	-0.0056282711	-0.16970218	1.0564138	0.1994129	-0.17400455	1.0608876	-0.19313399	-0.025689232	0.8812464	-0.0046983404	-0.059938366	0.99707196	-0.12044774	0.3152341	0.51106757	0.12943448	0.27961255	0.51607611	0.23192203	0.12006236	0.62307263	0.1734566	0.29631021	0.11198	0.11050887	0.27487799	0.1006916	0.20246117	0.28537561	0.36244061	0.2428533	0.19455751	0.061870739	0.14905347
8694	86.93	0.4319483	0.066313202	0.14567677	-0.075274422	0.63164435	0.11688316	-0.15489633	0.64245984	0.16437988	-0.29022546	0.58692297	0.015118102	-0.19850272	0.63658594	-0.17683253	-0.10507699	0.64562494	-0.14643141	-0.071846748	1.0389838	-0.0056341977	-0.16918584	1.0564413	0.19941016	-0.17346715	1.0609659	-0.19312924	-0.025311312	0.88115302	-0.0047776356	-0.05941383	0.99705774	-0.1205033	0.3149595	0.51104956	0.12932547	0.27945578	0.51608655	0.23182433	0.11996033	0.62311554	0.17349648	0.29627597	0.11197272	0.11051099	0.27486545	0.10069537	0.20247807	0.28525601	0.3624805	0.24282114	0.19455138	0.061866879	0.14906313
8695	86.94	0.43195261	0.066310257	0.14576276	-0.075385223	0.63176544	0.11680344	-0.15497929	0.64257855	0.16438251	-0.29038339	0.58694189	0.015150209	-0.19864606	0.63669897	-0.17695331	-0.10513359	0.64566974	-0.14648267	-0.071218132	1.03897	-0.0056314039	-0.16859511	1.0564718	0.19941396	-0.1728326	1.0610679	-0.19312006	-0.024936209	0.8810177	-0.0048700995	-0.058797241	0.99704443	-0.12056143	0.314689	0.5110336	0.12919963	0.27926773	0.51609485	0.23170869	0.11983987	0.62316064	0.17353264	0.29623959	0.11196333	0.11051241	0.27485233	0.1007015	0.20250046	0.28511188	0.36252484	0.24277473	0.19454372	0.061861938	0.14907288
8696	86.95	0.43194934	0.066315636	0.14580896	-0.07552037	0.63188873	0.11679657	-0.15507884	0.64271582	0.16437961	-0.29056537	0.58697046	0.015179825	-0.19879321	0.63679535	-0.17688202	-0.10518602	0.64571265	-0.14655174	-0.070488449	1.0389517	-0.0056193123	-0.16791377	1.0565049	0.19942702	-0.17208757	1.0611936	-0.19310551	-0.024563276	0.88083203	-0.0049774323	-0.058077675	0.99702869	-0.12062016	0.31441684	0.51101953	0.12906078	0.27904727	0.51610248	0.23157927	0.11969727	0.6232074	0.17356281	0.29620102	0.11195231	0.11051328	0.27483908	0.10071064	0.20252959	0.28493863	0.36257361	0.24271292	0.19453418	0.061855629	0.14908234
8697	86.96	0.43193845	0.066329262	0.14581516	-0.075681328	0.63201483	0.11682623	-0.15519954	0.64286652	0.16437152	-0.29077448	0.58700403	0.015205643	-0.19895068	0.63688013	-0.17671465	-0.10523621	0.64575562	-0.14663332	-0.069642937	1.0389218	-0.0055983067	-0.16712315	1.0565385	0.1994512	-0.17121945	1.0613406	-0.19308609	-0.024184391	0.88059015	-0.0050997267	-0.057244671	0.99700623	-0.12067503	0.31412311	0.51100427	0.12891374	0.27879385	0.51611115	0.23144109	0.11952917	0.62325458	0.17358475	0.29616049	0.11194042	0.11051397	0.27482593	0.10072303	0.20256628	0.28473242	0.36262653	0.24263617	0.19452269	0.061847507	0.14909126
8698	86.97	0.43191995	0.066351036	0.14578293	-0.075869507	0.63214404	0.11685178	-0.15534616	0.64302332	0.16436099	-0.29101373	0.58703699	0.01522702	-0.1991259	0.63696167	-0.17656149	-0.10528608	0.64580365	-0.14672064	-0.068667305	1.0388705	-0.0055690298	-0.16620329	1.0565702	0.19948712	-0.17021593	1.0615056	-0.19306157	-0.023775061	0.88029047	-0.0052331252	-0.05628793	0.99697095	-0.12071957	0.31378363	0.51098444	0.12876268	0.2785061	0.51612177	0.2312988	0.11933259	0.62330072	0.17359636	0.29611819	0.11192858	0.1105148	0.27481287	0.10073855	0.20261171	0.28449063	0.36268265	0.24254663	0.19450954	0.061837322	0.14909979
8699	86.98	0.4318942	0.06638131	0.14571333	-0.076088135	0.63227466	0.1168498	-0.15552405	0.64317816	0.16435397	-0.29128687	0.58706305	0.015244591	-0.19932471	0.63704724	-0.17649292	-0.10533642	0.64586511	-0.1468065	-0.067548164	1.0387867	-0.0055310569	-0.16513394	1.0565968	0.19953452	-0.16906401	1.0616844	-0.19302892	-0.023293217	0.87993665	-0.0053695974	-0.055197521	0.99691492	-0.12074773	0.313379	0.51095761	0.12861029	0.27818188	0.51613464	0.23115602	0.11910475	0.62334381	0.1735957	0.29607471	0.1119177	0.11051615	0.27479965	0.10075645	0.20266693	0.28421255	0.36274045	0.24244774	0.19449513	0.061824955	0.14910851
8700	86.99	0.43186124	0.066420647	0.14560742	-0.076343567	0.63240149	0.11682928	-0.15573973	0.64332428	0.16435942	-0.29159814	0.58707672	0.015260334	-0.19954816	0.63713678	-0.17650191	-0.105385	0.64595343	-0.14688249	-0.066272652	1.0386608	-0.0054822946	-0.16389589	1.0566149	0.19959286	-0.16774977	1.0618739	-0.19298257	-0.022692869	0.87953479	-0.0054998417	-0.05396434	0.99682788	-0.12075634	0.31289816	0.5109231	0.12845818	0.277819	0.51614905	0.23101482	0.11884326	0.62338159	0.17358084	0.29603064	0.11190844	0.11051826	0.27478549	0.10077558	0.20273232	0.28389932	0.36279782	0.2423441	0.19447997	0.061810368	0.14911809
8701	87	0.43182199	0.066469055	0.14546999	-0.076643814	0.63251862	0.11681873	-0.15600073	0.64345667	0.16438881	-0.29195102	0.58707349	0.015276889	-0.1997924	0.63722571	-0.17653749	-0.10542496	0.64608972	-0.14693802	-0.06482782	1.0384834	-0.0054202323	-0.16247224	1.0566217	0.19966148	-0.16625822	1.0620703	-0.19291786	-0.021939514	0.87908685	-0.0056161652	-0.052580051	0.99669788	-0.12074567	0.31234351	0.51088147	0.12830748	0.27741678	0.51616364	0.23087613	0.11854691	0.62341211	0.17355067	0.29598666	0.11190112	0.11052144	0.27476978	0.10079511	0.20280843	0.28355399	0.36285239	0.24224147	0.19446423	0.061793823	0.14912939
8702	87.01	0.4317782	0.066525452	0.14531102	-0.076995956	0.63262341	0.11684479	-0.15631453	0.64357336	0.16445509	-0.29234634	0.58704999	0.015296295	-0.20005177	0.63730963	-0.17655696	-0.10544366	0.64630121	-0.14696248	-0.063200706	1.0382463	-0.0053434849	-0.1608492	1.0566133	0.19973997	-0.16457367	1.0622689	-0.19283292	-0.021014488	0.87858923	-0.0057133627	-0.051036793	0.99651202	-0.12071827	0.31173502	0.51083612	0.12816016	0.27697668	0.51617633	0.23074039	0.11821649	0.62343457	0.17350656	0.29594333	0.11189573	0.11052615	0.27475259	0.10081509	0.20289682	0.2831817	0.36290256	0.2421468	0.19444781	0.061775948	0.14914304
8703	87.02	0.43173224	0.066587303	0.14514383	-0.077404198	0.63271832	0.11692415	-0.1566862	0.64367529	0.16457253	-0.2927811	0.58700446	0.015318624	-0.20032185	0.63738647	-0.17654144	-0.10542297	0.64661139	-0.14695024	-0.061379005	1.0379423	-0.0052517371	-0.15901601	1.0565869	0.19982874	-0.16268013	1.0624613	-0.19272772	-0.01991342	0.87803308	-0.0057888131	-0.049326683	0.99625751	-0.12067718	0.31110464	0.5107926	0.12801941	0.27650278	0.516185	0.2306086	0.11785535	0.62344971	0.17345317	0.29590109	0.11189204	0.11053288	0.27473431	0.10083619	0.20299944	0.28278928	0.36294788	0.2420675	0.19443044	0.061757458	0.14915929
8704	87.03	0.43168686	0.066651352	0.14498145	-0.077868553	0.63280933	0.1170638	-0.1571158	0.64376581	0.16475494	-0.29324884	0.58693695	0.015340933	-0.20060094	0.63745667	-0.17648941	-0.10534134	0.6470321	-0.14690475	-0.059351868	1.0375635	-0.0051445727	-0.1569649	1.0565389	0.19992828	-0.1605616	1.0626354	-0.1926033	-0.018643595	0.87740594	-0.0058421769	-0.047441349	0.995922	-0.12062405	0.31048227	0.5107562	0.12788913	0.27600113	0.51618793	0.23048381	0.11746881	0.62345996	0.17339819	0.29585983	0.11188974	0.11054205	0.27471585	0.10085883	0.20311702	0.28238434	0.36298907	0.24200957	0.19441214	0.061738876	0.14917784
8705	87.04	0.43164413	0.066714554	0.14483369	-0.078382484	0.63290338	0.11726107	-0.15759523	0.64385028	0.16500969	-0.29374042	0.58684943	0.01535758	-0.20088884	0.63752112	-0.17640678	-0.1051781	0.64756348	-0.14683771	-0.057109684	1.0371021	-0.0050209455	-0.15469034	1.0564662	0.20003859	-0.15820204	1.0627792	-0.19246198	-0.017218544	0.87669318	-0.0058738093	-0.045372219	0.99549445	-0.1205582	0.30988547	0.51073044	0.12777363	0.27547812	0.51618396	0.23037096	0.11706322	0.62346826	0.17335097	0.29581931	0.11188877	0.11055392	0.27469751	0.10088229	0.20324702	0.28197351	0.36302652	0.24197546	0.19439325	0.061720703	0.14919812
8706	87.05	0.43160568	0.066774422	0.14470694	-0.078929527	0.63300537	0.11750037	-0.15810429	0.64393439	0.16532521	-0.29424533	0.58674493	0.015362627	-0.20118608	0.63758112	-0.17629929	-0.10491981	0.64819965	-0.14676489	-0.05464357	1.03655	-0.0048796644	-0.15218768	1.0563639	0.20015854	-0.15558575	1.0628813	-0.19230724	-0.015652357	0.87588135	-0.0058827024	-0.043111462	0.99496405	-0.12047807	0.30931772	0.51071603	0.12767725	0.27494006	0.51617279	0.23027481	0.11664468	0.62347754	0.17332051	0.29577942	0.11188925	0.11056851	0.27467899	0.10090355	0.20338068	0.28156186	0.36305954	0.24196249	0.19437425	0.061703468	0.14921922
8707	87.06	0.43157251	0.066828888	0.14460442	-0.079482018	0.63311646	0.11775078	-0.15861011	0.64402301	0.16566264	-0.29475278	0.58662659	0.015351958	-0.20149367	0.6376366	-0.17616896	-0.10456862	0.64892816	-0.14670116	-0.051945942	1.0358981	-0.0047201486	-0.14945146	1.0562274	0.20028659	-0.15269798	1.0629337	-0.19214288	-0.013956668	0.8749588	-0.0058661623	-0.040652443	0.99432025	-0.12038226	0.30876907	0.51070987	0.12760313	0.27439252	0.51615466	0.23019872	0.11621801	0.62349017	0.17331476	0.2957403	0.1118914	0.11058541	0.27465842	0.10091701	0.20350134	0.28115192	0.36308591	0.24196274	0.1943559	0.061687607	0.14924017
